<?xml version="1.0" encoding="UTF-8" standalone="no"?>
<!DOCTYPE svg PUBLIC "-//W3C//DTD SVG 1.0//EN" "http://www.w3.org/TR/2001/PR-SVG-20010719/DTD/svg10.dtd">
<svg width="51cm" height="21cm" viewBox="-712 1198 1013 413" xmlns="http://www.w3.org/2000/svg" xmlns:xlink="http://www.w3.org/1999/xlink">
  <g>
    <rect style="fill: #ffffff" x="-690" y="1200" width="590" height="300"/>
    <rect style="fill: none; fill-opacity:0; stroke-width: 2; stroke: #000000" x="-690" y="1200" width="590" height="300"/>
    <text font-size="12.8" style="fill: #000000;text-anchor:middle;font-family:sans-serif;font-style:normal;font-weight:normal" x="-395" y="1345.9">
      <tspan x="-395" y="1345.9"> </tspan>
      <tspan x="-395" y="1361.9"></tspan>
    </text>
  </g>
  <g>
    <rect style="fill: #ffffff" x="-80" y="1200" width="380" height="150"/>
    <rect style="fill: none; fill-opacity:0; stroke-width: 2; stroke: #000000" x="-80" y="1200" width="380" height="150"/>
    <text font-size="12.8" style="fill: #000000;text-anchor:middle;font-family:sans-serif;font-style:normal;font-weight:normal" x="110" y="1278.9">
      <tspan x="110" y="1278.9"></tspan>
    </text>
  </g>
  <rect style="fill: none; fill-opacity:0; stroke-width: 2; stroke-linejoin: round; stroke-dasharray: 10; stroke: #000000" x="-60" y="1260" width="340" height="70" rx="10" ry="10"/>
  <rect style="fill: none; fill-opacity:0; stroke-width: 2; stroke-linejoin: round; stroke-dasharray: 10; stroke: #000000" x="-320" y="1340" width="193.142" height="140" rx="10" ry="10"/>
  <text font-size="15.8044" style="fill: #000000;text-anchor:middle;font-family:sans-serif;font-style:normal;font-weight:700" x="-395" y="1214.7">
    <tspan x="-395" y="1214.7">Bank</tspan>
  </text>
  <text font-size="15.8044" style="fill: #000000;text-anchor:middle;font-family:sans-serif;font-style:normal;font-weight:700" x="110" y="1214.7">
    <tspan x="110" y="1214.7">Transaction</tspan>
  </text>
  <g>
    <rect style="fill: #ffffff" x="67.9998" y="1388" width="83.9" height="28"/>
    <rect style="fill: none; fill-opacity:0; stroke-width: 2; stroke-linejoin: round; stroke: #000000" x="67.9998" y="1388" width="83.9" height="28"/>
    <text font-size="16" style="fill: #000000;text-anchor:middle;font-family:sans-serif;font-style:italic;font-weight:700" x="109.95" y="1407">Account</text>
    <rect style="fill: #ffffff" x="67.9998" y="1416" width="83.9" height="8"/>
    <rect style="fill: none; fill-opacity:0; stroke-width: 2; stroke-linejoin: round; stroke: #000000" x="67.9998" y="1416" width="83.9" height="8"/>
    <rect style="fill: #ffffff" x="67.9998" y="1424" width="83.9" height="8"/>
    <rect style="fill: none; fill-opacity:0; stroke-width: 2; stroke-linejoin: round; stroke: #000000" x="67.9998" y="1424" width="83.9" height="8"/>
  </g>
  <g>
    <polyline style="fill: none; fill-opacity:0; stroke-width: 2; stroke: #000000" points="41.35,1299.88 42.35,1299.88 159,1299.88 160,1299.88 "/>
    <text font-size="12.7998" style="fill: #000000;text-anchor:middle;font-family:monospace;font-style:normal;font-weight:normal" x="100.675" y="1295.88">trans</text>
    <text font-size="12.7998" style="fill: #000000;text-anchor:start;font-family:monospace;font-style:normal;font-weight:normal" x="45.35" y="1295.88">1</text>
    <text font-size="12.7998" style="fill: #000000;text-anchor:end;font-family:monospace;font-style:normal;font-weight:normal" x="156" y="1295.88">1</text>
  </g>
  <text font-size="15.8044" style="fill: #000000;text-anchor:middle;font-family:sans-serif;font-style:italic;font-weight:normal" x="-223.428" y="1354.7">
    <tspan x="-223.428" y="1354.7">BankAccounts (1..1)</tspan>
  </text>
  <g>
    <polyline style="fill: none; fill-opacity:0; stroke-width: 2; stroke: #000000" points="67.0392,1410 20,1410 20,1410 -111.858,1410 "/>
    <polygon style="fill: #000000" points="-111.858,1403 -125.858,1410 -111.858,1417 "/>
    <polygon style="fill: none; fill-opacity:0; stroke-width: 2; stroke: #000000" points="-111.858,1403 -125.858,1410 -111.858,1417 "/>
  </g>
  <g>
    <polyline style="fill: none; fill-opacity:0; stroke-width: 2; stroke: #000000" points="109.95,1386.99 109.95,1359 110,1359 110,1346.01 "/>
    <polygon style="fill: #000000" points="117,1346.01 110,1332.01 103,1346.01 "/>
    <polygon style="fill: none; fill-opacity:0; stroke-width: 2; stroke: #000000" points="117,1346.01 110,1332.01 103,1346.01 "/>
  </g>
  <g>
    <rect style="fill: #ffffff" x="-690" y="1540" width="72.4" height="28"/>
    <rect style="fill: none; fill-opacity:0; stroke-width: 2; stroke: #000000" x="-690" y="1540" width="72.4" height="28"/>
    <text font-size="16" style="fill: #000000;text-anchor:middle;font-family:sans-serif;font-style:normal;font-weight:700" x="-653.8" y="1559">Person</text>
    <rect style="fill: #ffffff" x="-690" y="1568" width="72.4" height="8"/>
    <rect style="fill: none; fill-opacity:0; stroke-width: 2; stroke: #000000" x="-690" y="1568" width="72.4" height="8"/>
    <rect style="fill: #ffffff" x="-690" y="1576" width="72.4" height="8"/>
    <rect style="fill: none; fill-opacity:0; stroke-width: 2; stroke: #000000" x="-690" y="1576" width="72.4" height="8"/>
  </g>
  <g>
    <rect style="fill: #ffffff" x="-540" y="1540" width="93.5" height="28"/>
    <rect style="fill: none; fill-opacity:0; stroke-width: 2; stroke: #000000" x="-540" y="1540" width="93.5" height="28"/>
    <text font-size="16" style="fill: #000000;text-anchor:middle;font-family:sans-serif;font-style:normal;font-weight:700" x="-493.25" y="1559">Company</text>
    <rect style="fill: #ffffff" x="-540" y="1568" width="93.5" height="8"/>
    <rect style="fill: none; fill-opacity:0; stroke-width: 2; stroke: #000000" x="-540" y="1568" width="93.5" height="8"/>
    <rect style="fill: #ffffff" x="-540" y="1576" width="93.5" height="8"/>
    <rect style="fill: none; fill-opacity:0; stroke-width: 2; stroke: #000000" x="-540" y="1576" width="93.5" height="8"/>
  </g>
  <g>
    <polyline style="fill: none; fill-opacity:0; stroke-width: 2; stroke: #000000" points="-542.4,1389.88 -541.4,1389.88 -311,1389.88 -310,1389.88 "/>
    <text font-size="12.7998" style="fill: #000000;text-anchor:middle;font-family:monospace;font-style:normal;font-weight:normal" x="-426.2" y="1385.88">own_ca</text>
    <text font-size="12.7998" style="fill: #000000;text-anchor:start;font-family:monospace;font-style:normal;font-weight:normal" x="-538.4" y="1385.88">  1</text>
    <text font-size="12.7998" style="fill: #000000;text-anchor:end;font-family:monospace;font-style:normal;font-weight:normal" x="-314" y="1385.88">0..*</text>
  </g>
  <g>
    <polyline style="fill: none; fill-opacity:0; stroke-width: 2; stroke: #000000" points="-542.4,1409.76 -400,1409.76 -400,1449.88 -310,1449.88 "/>
    <text font-size="12.7998" style="fill: #000000;text-anchor:start;font-family:monospace;font-style:normal;font-weight:normal" x="-398" y="1425.82">own_sa</text>
    <text font-size="12.7998" style="fill: #000000;text-anchor:start;font-family:monospace;font-style:normal;font-weight:normal" x="-538.4" y="1405.76">  1..*</text>
    <text font-size="12.7998" style="fill: #000000;text-anchor:end;font-family:monospace;font-style:normal;font-weight:normal" x="-314" y="1445.88">0..*</text>
  </g>
  <g>
    <polyline style="fill: none; fill-opacity:0; stroke-width: 2; stroke: #000000" points="-493.25,1539.01 -493.25,1520 -606.2,1520 -606.2,1424.76 "/>
    <polygon style="fill: #000000" points="-599.2,1424.76 -606.2,1410.76 -613.2,1424.76 "/>
    <polygon style="fill: none; fill-opacity:0; stroke-width: 2; stroke: #000000" points="-599.2,1424.76 -606.2,1410.76 -613.2,1424.76 "/>
  </g>
  <g>
    <polyline style="fill: none; fill-opacity:0; stroke-width: 2; stroke: #000000" points="-80,1280 -113.8,1280 -113.8,1279.88 -132.6,1279.88 "/>
    <polygon style="fill: #000000" points="-132.6,1272.88 -146.6,1279.88 -132.6,1286.88 "/>
    <polygon style="fill: none; fill-opacity:0; stroke-width: 2; stroke: #000000" points="-132.6,1272.88 -146.6,1279.88 -132.6,1286.88 "/>
  </g>
  <text font-size="12.9032" style="fill: #000000;text-anchor:middle;font-family:monospace;font-style:normal;font-weight:normal" x="110" y="1256.95">
    <tspan x="110" y="1256.95">1..1</tspan>
  </text>
  <text font-size="15.8044" style="fill: #000000;text-anchor:middle;font-family:sans-serif;font-style:italic;font-weight:normal" x="110" y="1274.7">
    <tspan x="110" y="1274.7">Participants (1..1)</tspan>
  </text>
  <text font-size="12.9032" style="fill: #000000;text-anchor:middle;font-family:monospace;font-style:normal;font-weight:normal" x="-606.2" y="1366.95">
    <tspan x="-606.2" y="1366.95">0..*</tspan>
  </text>
  <text font-size="12.9032" style="fill: #000000;text-anchor:middle;font-family:monospace;font-style:normal;font-weight:normal" x="-223.428" y="1336.95">
    <tspan x="-223.428" y="1336.95">1..*</tspan>
  </text>
  <line style="fill: none; fill-opacity:0; stroke-width: 2; stroke: #000000" x1="-690" y1="1240" x2="-100" y2="1240"/>
  <text font-size="12.9032" style="fill: #000000;text-anchor:middle;font-family:monospace;font-style:normal;font-weight:normal" x="-606.124" y="1256.95">
    <tspan x="-606.124" y="1256.95">1..*</tspan>
  </text>
  <g>
    <polyline style="fill: none; fill-opacity:0; stroke-width: 2; stroke: #000000" points="-653.8,1539.01 -653.8,1520 -606.2,1520 -606.2,1424.76 "/>
    <polygon style="fill: #000000" points="-599.2,1424.76 -606.2,1410.76 -613.2,1424.76 "/>
    <polygon style="fill: none; fill-opacity:0; stroke-width: 2; stroke: #000000" points="-599.2,1424.76 -606.2,1410.76 -613.2,1424.76 "/>
  </g>
  <g>
    <polyline style="fill: none; fill-opacity:0; stroke-width: 2; stroke: #000000" points="-690.956,1562 -710,1562 -710,1279.88 -685,1279.88 "/>
    <polygon style="fill: #000000" points="-685,1286.88 -671,1279.88 -685,1272.88 "/>
    <polygon style="fill: none; fill-opacity:0; stroke-width: 2; stroke: #000000" points="-685,1286.88 -671,1279.88 -685,1272.88 "/>
  </g>
  <g>
    <polyline style="fill: none; fill-opacity:0; stroke-width: 2; stroke: #000000" points="-570,1300 -570,1301 -570,1369 -570,1370 "/>
    <text font-size="12.7998" style="fill: #000000;text-anchor:start;font-family:monospace;font-style:normal;font-weight:normal" x="-568" y="1331">advises</text>
    <text font-size="12.7998" style="fill: #000000;text-anchor:start;font-family:monospace;font-style:normal;font-weight:normal" x="-566" y="1312">0..*</text>
    <text font-size="12.7998" style="fill: #000000;text-anchor:start;font-family:monospace;font-style:normal;font-weight:normal" x="-566" y="1366">1..*</text>
  </g>
  <g>
    <rect style="fill: #ffffff" x="-310" y="1520" width="100" height="40"/>
    <rect style="fill: none; fill-opacity:0; stroke-width: 2; stroke: #7f7f7f" x="-310" y="1520" width="100" height="40"/>
  </g>
  <text font-size="12.4178" style="fill: #4d4d4d;text-anchor:middle;font-family:sans-serif;font-style:normal;font-weight:700" x="-260" y="1531.55">
    <tspan x="-260" y="1531.55">Natural Type</tspan>
  </text>
  <line style="fill: none; fill-opacity:0; stroke-width: 2; stroke: #7f7f7f" x1="-310" y1="1540" x2="-210" y2="1540"/>
  <g>
    <polyline style="fill: none; fill-opacity:0; stroke-width: 2; stroke: #7f7f7f" points="141.236,1530 142.236,1530 180.236,1530 166.236,1530 "/>
    <polygon style="fill: #7f7f7f" points="166.236,1537 180.236,1530 166.236,1523 "/>
    <polygon style="fill: none; fill-opacity:0; stroke-width: 2; stroke: #7f7f7f" points="166.236,1537 180.236,1530 166.236,1523 "/>
  </g>
  <text font-size="12.9032" style="fill: #4d4d4d;text-anchor:start;font-family:sans-serif;font-style:normal;font-weight:normal" x="201.236" y="1534.47">
    <tspan x="201.236" y="1534.47">Fills-Relation</tspan>
  </text>
  <g>
    <rect style="fill: #ffffff" x="-170" y="1520" width="140" height="80"/>
    <rect style="fill: none; fill-opacity:0; stroke-width: 2; stroke: #7f7f7f" x="-170" y="1520" width="140" height="80"/>
  </g>
  <text font-size="12.4178" style="fill: #4d4d4d;text-anchor:middle;font-family:sans-serif;font-style:normal;font-weight:700" x="-100" y="1531.55">
    <tspan x="-100" y="1531.55">Compartment Type</tspan>
  </text>
  <line style="fill: none; fill-opacity:0; stroke-width: 2; stroke: #7f7f7f" x1="-170" y1="1540" x2="-30" y2="1540"/>
  <line style="fill: none; fill-opacity:0; stroke-width: 2; stroke: #7f7f7f" x1="-310" y1="1550" x2="-210" y2="1550"/>
  <g>
    <polyline style="fill: none; fill-opacity:0; stroke-width: 2; stroke: #7f7f7f" points="140,1570 141,1570 280.236,1570 281.236,1570 "/>
    <text font-size="12.7998" style="fill: #4d4d4d;text-anchor:middle;font-family:monospace;font-style:normal;font-weight:normal" x="210.618" y="1566">RST</text>
    <text font-size="12.7998" style="fill: #4d4d4d;text-anchor:start;font-family:monospace;font-style:normal;font-weight:normal" x="144" y="1566">CardN</text>
    <text font-size="12.7998" style="fill: #4d4d4d;text-anchor:end;font-family:monospace;font-style:normal;font-weight:normal" x="277.236" y="1566">CardM</text>
  </g>
  <rect style="fill: none; fill-opacity:0; stroke-width: 2; stroke-linejoin: round; stroke-dasharray: 10; stroke: #7f7f7f" x="10" y="1570" width="90" height="40" rx="10" ry="10"/>
  <text font-size="12.4178" style="fill: #4d4d4d;text-anchor:middle;font-family:sans-serif;font-style:italic;font-weight:normal" x="55" y="1581.55">
    <tspan x="55" y="1581.55">RoleGroup</tspan>
    <tspan x="55" y="1597.07">(n..m)</tspan>
  </text>
  <text font-size="12.4178" style="fill: #4d4d4d;text-anchor:middle;font-family:monospace;font-style:normal;font-weight:normal" x="-101.746" y="1557.05">
    <tspan x="-101.746" y="1557.05">Card</tspan>
  </text>
  <g>
    <rect style="fill: #e5e5e5" x="-141.746" y="1560" width="80" height="20" rx="10" ry="10"/>
    <rect style="fill: none; fill-opacity:0; stroke-width: 2; stroke-linejoin: round; stroke-dasharray: 10; stroke: #7f7f7f" x="-141.746" y="1560" width="80" height="20" rx="10" ry="10"/>
  </g>
  <line style="fill: none; fill-opacity:0; stroke-width: 2; stroke-linejoin: round; stroke: #000000" x1="-80" y1="1240" x2="300" y2="1240"/>
  <g>
    <polyline style="fill: none; fill-opacity:0; stroke-width: 2; stroke: #000000" points="-542.4,1370 -400,1370 -400,1279.88 -300,1279.88 "/>
    <text font-size="12.7998" style="fill: #000000;text-anchor:start;font-family:monospace;font-style:normal;font-weight:normal" x="-398" y="1320.94">issues</text>
    <text font-size="12.7998" style="fill: #000000;text-anchor:start;font-family:monospace;font-style:normal;font-weight:normal" x="-538.4" y="1366">  1</text>
    <text font-size="12.7998" style="fill: #000000;text-anchor:end;font-family:monospace;font-style:normal;font-weight:normal" x="-304" y="1275.88">1..*</text>
  </g>
  <g>
    <rect style="fill: #e5e5e5" x="10" y="1520" width="87.45" height="35.5222" rx="20" ry="20"/>
    <rect style="fill: none; fill-opacity:0; stroke-width: 2; stroke: #000000" x="10" y="1520" width="87.45" height="35.5222" rx="20" ry="20"/>
    <text font-size="12.4178" style="fill: #4d4d4d;text-anchor:middle;font-family:sans-serif;font-style:normal;font-weight:700" x="53.725" y="1541.55">
      <tspan x="53.725" y="1541.55">Role Type</tspan>
    </text>
  </g>
  <g>
    <rect style="fill: #e5e5e5" x="-670" y="1260" width="127.75" height="39.7556" rx="20" ry="20"/>
    <rect style="fill: none; fill-opacity:0; stroke-width: 2; stroke: #000000" x="-670" y="1260" width="127.75" height="39.7556" rx="20" ry="20"/>
    <text font-size="15.8044" style="fill: #000000;text-anchor:middle;font-family:sans-serif;font-style:normal;font-weight:700" x="-606.125" y="1284.7">
      <tspan x="-606.125" y="1284.7"> Consultant </tspan>
    </text>
  </g>
  <g>
    <rect style="fill: #e5e5e5" x="-300" y="1260" width="152.4" height="39.7556" rx="20" ry="20"/>
    <rect style="fill: none; fill-opacity:0; stroke-width: 2; stroke: #000000" x="-300" y="1260" width="152.4" height="39.7556" rx="20" ry="20"/>
    <text font-size="15.8044" style="fill: #000000;text-anchor:middle;font-family:sans-serif;font-style:normal;font-weight:700" x="-223.8" y="1284.7">
      <tspan x="-223.8" y="1284.7">MoneyTransfer</tspan>
    </text>
  </g>
  <g>
    <rect style="fill: #e5e5e5" x="-40" y="1280" width="81.35" height="39.7556" rx="20" ry="20"/>
    <rect style="fill: none; fill-opacity:0; stroke-width: 2; stroke: #000000" x="-40" y="1280" width="81.35" height="39.7556" rx="20" ry="20"/>
    <text font-size="15.8044" style="fill: #000000;text-anchor:middle;font-family:sans-serif;font-style:normal;font-weight:700" x="0.675" y="1304.7">
      <tspan x="0.675" y="1304.7">Source</tspan>
    </text>
  </g>
  <g>
    <rect style="fill: #e5e5e5" x="160" y="1280" width="100.35" height="39.7556" rx="20" ry="20"/>
    <rect style="fill: none; fill-opacity:0; stroke-width: 2; stroke: #000000" x="160" y="1280" width="100.35" height="39.7556" rx="20" ry="20"/>
    <text font-size="15.8044" style="fill: #000000;text-anchor:middle;font-family:sans-serif;font-style:normal;font-weight:700" x="210.175" y="1304.7">
      <tspan x="210.175" y="1304.7">RoleType</tspan>
    </text>
  </g>
  <g>
    <rect style="fill: #e5e5e5" x="-670" y="1370" width="127.6" height="39.7556" rx="20" ry="20"/>
    <rect style="fill: none; fill-opacity:0; stroke-width: 2; stroke: #000000" x="-670" y="1370" width="127.6" height="39.7556" rx="20" ry="20"/>
    <text font-size="15.8044" style="fill: #000000;text-anchor:middle;font-family:sans-serif;font-style:normal;font-weight:700" x="-606.2" y="1394.7">
      <tspan x="-606.2" y="1394.7">  Customer  </tspan>
    </text>
  </g>
  <text font-size="12.9032" style="fill: #000000;text-anchor:middle;font-family:monospace;font-style:normal;font-weight:normal" x="-223.8" y="1256.95">
    <tspan x="-223.8" y="1256.95">0..*</tspan>
  </text>
  <g>
    <rect style="fill: #e5e5e5" x="-310" y="1370" width="173.2" height="39.7556" rx="20" ry="20"/>
    <rect style="fill: none; fill-opacity:0; stroke-width: 2; stroke: #000000" x="-310" y="1370" width="173.2" height="39.7556" rx="20" ry="20"/>
    <text font-size="15.8044" style="fill: #000000;text-anchor:middle;font-family:sans-serif;font-style:normal;font-weight:700" x="-223.4" y="1394.7">
      <tspan x="-223.4" y="1394.7">CheckingAccount</tspan>
    </text>
  </g>
  <g>
    <rect style="fill: #e5e5e5" x="-310" y="1430" width="172.55" height="39.7556" rx="20" ry="20"/>
    <rect style="fill: none; fill-opacity:0; stroke-width: 2; stroke: #000000" x="-310" y="1430" width="172.55" height="39.7556" rx="20" ry="20"/>
    <text font-size="15.8044" style="fill: #000000;text-anchor:middle;font-family:sans-serif;font-style:normal;font-weight:700" x="-223.725" y="1454.7">
      <tspan x="-223.725" y="1454.7"> SavingsAccount </tspan>
    </text>
  </g>
</svg>
